<?xml version="1.0" standalone="no"?>
<!DOCTYPE svg PUBLIC "-//W3C//DTD SVG 20010904//EN"
 "http://www.w3.org/TR/2001/REC-SVG-20010904/DTD/svg10.dtd">
<svg version="1.0" xmlns="http://www.w3.org/2000/svg"
 width="600.000000pt" height="600.000000pt" viewBox="0 0 600.000000 600.000000"
 preserveAspectRatio="xMidYMid meet">
<metadata>
Created by potrace 1.14, written by Peter Selinger 2001-2017
</metadata>
<g transform="translate(0.000000,600.000000) scale(0.100000,-0.100000)"
fill="#000000" stroke="none">
<path d="M3060 5967 c182 -116 245 -158 335 -225 359 -268 678 -618 891 -979
214 -362 390 -853 439 -1223 1 -14 6 -45 9 -70 4 -25 9 -63 12 -85 9 -75 12
-370 4 -435 -36 -273 -113 -487 -256 -707 -55 -85 -93 -133 -104 -133 -7 0
-43 33 -249 229 -84 80 -161 152 -171 161 -9 8 -86 80 -170 160 -84 80 -170
161 -190 180 -20 19 -100 94 -176 166 -76 72 -155 146 -174 164 -19 18 -100
94 -180 170 -80 76 -165 157 -190 180 -25 23 -110 104 -190 179 -80 76 -167
158 -195 184 l-50 47 475 470 c304 301 469 470 458 471 -10 1 -21 2 -25 3 -5
2 -35 6 -68 10 -33 4 -73 10 -90 12 -16 3 -63 10 -105 15 -103 14 -129 17
-175 24 -75 12 -90 14 -138 20 -26 3 -110 14 -185 25 -207 29 -242 34 -327 45
-22 3 -73 11 -113 17 l-74 11 -71 -71 c-40 -39 -180 -177 -312 -307 -132 -130
-436 -432 -676 -670 l-436 -433 367 -368 c202 -202 371 -369 376 -371 5 -1
166 153 358 342 l349 345 46 -49 c25 -27 105 -111 176 -186 72 -76 145 -154
164 -174 39 -42 161 -169 477 -497 127 -131 255 -264 284 -294 29 -30 181
-187 339 -348 157 -162 286 -299 286 -305 0 -28 -307 -124 -450 -142 -27 -4
-63 -8 -80 -10 -39 -6 -236 -6 -300 -1 -133 10 -321 55 -452 107 -223 88 -398
205 -574 383 -44 44 -32 47 -133 -39 l-59 -50 -91 0 c-85 0 -94 -2 -135 -30
-60 -41 -78 -51 -136 -71 -35 -12 -67 -35 -107 -76 -32 -32 -58 -64 -58 -71 0
-41 -110 -206 -203 -304 -116 -122 -229 -193 -450 -283 -211 -86 -413 -278
-511 -483 -57 -119 -76 -202 -71 -297 5 -73 6 -136 3 -149 -5 -18 15 -70 36
-94 39 -45 78 -55 211 -52 137 3 172 8 261 41 249 90 498 346 579 594 54 165
183 349 329 469 44 36 174 119 199 127 66 21 167 124 182 187 4 15 9 27 11 27
2 0 54 -51 116 -112 159 -158 331 -286 523 -388 79 -42 248 -114 316 -135 157
-48 280 -77 384 -90 28 -4 77 -10 110 -15 62 -8 423 -5 462 4 11 2 43 7 70 11
88 12 99 15 214 44 138 35 283 88 404 148 l89 45 101 -104 c55 -58 163 -172
240 -253 77 -82 163 -172 190 -201 28 -29 91 -96 140 -150 168 -183 206 -212
315 -240 270 -69 533 155 506 431 -15 160 -27 174 -566 678 -36 33 -131 123
-212 200 l-147 139 43 56 c168 223 325 601 371 892 4 25 9 52 10 60 21 118 29
226 29 390 0 171 -14 331 -40 465 -2 11 -7 36 -10 55 -3 19 -19 88 -35 152
-170 688 -574 1328 -1123 1783 -26 22 -53 45 -59 50 -7 6 -28 22 -47 35 -19
13 -37 27 -40 31 -10 12 -196 138 -287 192 -237 143 -502 263 -763 342 -41 13
-84 26 -95 30 -11 4 5 -9 35 -28z"/>
</g>
</svg>
